<svg xmlns="http://www.w3.org/2000/svg" xmlns:xlink="http://www.w3.org/1999/xlink" version="1.1" id="Layer_1" x="0px" y="0px" width="100px" height="100px" viewBox="0 0 100 100" enable-background="new 0 0 100 100" xml:space="preserve">
<g>
	<path d="M84.779,88.954h-8.635h-8.271c-4.947,0-8.96-4.035-8.96-9.013l0.081-4.646H41.075l-0.082,4.646   c0,4.978-4.011,9.013-8.96,9.013H20.553h-5.425c-1.199,0-2.169,0.977-2.169,2.183s0.971,2.184,2.169,2.184h69.651   c1.196,0,2.168-0.978,2.168-2.184S85.976,88.954,84.779,88.954z"/>
	<path d="M93.621,6.07H6.285c-3.219,0-5.831,2.625-5.831,5.864v53.376c0,3.097,2.489,5.605,5.565,5.616h87.85   c3.082,0,5.584-2.514,5.584-5.617V11.935C99.453,8.696,96.843,6.07,93.621,6.07z M7.308,13.382H92.6v46.461H7.308V13.382z"/>
</g>
</svg>