<svg xmlns="http://www.w3.org/2000/svg" xmlns:xlink="http://www.w3.org/1999/xlink" version="1.1" id="Layer_1" x="0px" y="0px" width="100px" height="100px" viewBox="0 0 100 100" enable-background="new 0 0 100 100" xml:space="preserve">
<path d="M75.994,90.407c-0.105-0.484-0.214-0.983-0.323-1.494c-1.641-7.614-3.887-18.043-11.097-25.067  c-1.723-1.678-4.251-3.015-7.52-3.979c2.062-3.77,3.527-8.233,3.527-12.52c0-6.828-1.506-12.411-4.477-16.595  c-2.587-3.643-7.548-7.997-16.51-8.099v-0.002h-0.32v0.002c-2.375,0.027-4.469,0.35-6.312,0.878  c0.267-1.267,0.255-2.519,0.037-3.664c-0.343-1.793-1.203-3.387-2.416-4.648c0.248-1.425,0.378-2.875,0.167-4.342  C29.889,4.879,23.605,0,16.744,0C11.476,0,5.143,3.11,3.167,11.838C1.604,18.745,2.372,23.431,3.779,26.54  c-0.501,2.15-1.162,5.09-1.789,8.227c-2.397,11.989-2.176,16.087-1.643,18.515c0.61,2.779,3.855,16.304,11.028,25.612  c0.505,3.352,1.488,9.877,2.166,14.381L14.552,100h6.801h31.834h6.225h8.866h9.821L75.994,90.407z M59.061,92.1  c-0.627-2.611-1.006-5.783-3.646-9.259L53.187,92.1H21.353c-0.948-6.298-2.493-16.548-2.493-16.548  c-5.555-6.188-9.273-17.023-10.797-23.964c-1.155-5.267,4.213-26.597,4.213-26.597s-3.511-2.103-1.404-11.409  c0.955-4.22,3.417-5.682,5.871-5.682c2.958,0,5.904,2.124,6.188,4.102c0.306,2.126-2.226,8.313-0.469,8.313  c0.101,0,0.216-0.021,0.347-0.063c0.235-0.077,0.472-0.113,0.7-0.113c1.887,0,3.226,2.438-1.314,4.238  c-1.4,0.556-2.306,0.62-2.651,0.62c-0.105,0-0.158-0.006-0.158-0.006s-3.069,23.583-2.107,26.07  c1.376,3.559,5.416,12.866,9.673,15.967h-0.002c0.762,0.754,1.768,1.138,2.776,1.138c0.926,0,1.856-0.323,2.605-0.982  c1.639-1.44,1.8-3.937,0.36-5.575l-2.148-2.444l0.001,0.002c-1.924-2.52-4.356-7.175-4.356-11.819  c0-9.74,3.558-16.719,13.246-16.795c-0.053,0-0.106,0-0.159,0h0.32c-0.054,0-0.107,0-0.161,0  c9.613,0.077,13.248,7.055,13.248,16.795c0,5.095-3.451,11.195-6.333,13.721c0,0-1.612,4.214,0.758,4.74  c0,0,6.006,1.154,7.436,1.557c1.947,0.548,3.658,1.303,4.517,2.139c5.925,5.771,7.694,15.655,9.217,22.596H59.061z"/>
</svg>