<svg xmlns="http://www.w3.org/2000/svg" xmlns:xlink="http://www.w3.org/1999/xlink" version="1.1" id="Layer_1" x="0px" y="0px" width="100.0px" height="100px" viewBox="0 0 1700.787 1700.788" enable-background="new 0 0 1700.787 1700.788" xml:space="preserve">
<path d="M1430.335,376.06H269.83c-37.823,0-68.488,30.665-68.488,68.491v854.485h1297.482V444.551  C1498.824,406.725,1468.16,376.06,1430.335,376.06z M839.214,409.887c17.348,0,31.411,14.063,31.411,31.41  c0,17.347-14.063,31.409-31.411,31.409c-17.347,0-31.41-14.063-31.41-31.409C807.804,423.95,821.868,409.887,839.214,409.887z   M1392.517,1238.631H285.912V504.118h1106.605V1238.631z"/>
<path d="M1657.083,1366.689c0,60.521-49.063,109.587-109.582,109.587H152.665c-60.518,0-109.582-49.065-109.582-109.587v-28.993  h1614V1366.689z"/>
<path d="M647.747,1078.329l51.065,76.986c41.274-33.688,93.937-53.94,151.246-53.94c57.143,0,109.654,20.14,150.877,53.652  l50.938-77.094c-55.961-43.034-125.927-68.708-201.815-68.708C773.945,1009.225,703.789,1035.057,647.747,1078.329z"/>
<path d="M548.268,928.342l50.966,76.843c69.994-52.42,156.848-83.499,250.824-83.499c93.697,0,180.308,30.9,250.194,83.029  l50.835-76.928c-84.513-61.744-188.581-98.251-301.029-98.251C737.274,829.537,632.921,866.26,548.268,928.342z"/>
<path d="M850.058,735.083c131.668,0,253.64,42.241,353.132,113.851l50.836-76.93c-114.093-81.244-253.551-129.07-403.968-129.07  c-150.873,0-290.708,48.124-404.989,129.813l50.965,76.837C595.688,777.583,717.994,735.083,850.058,735.083z"/>
</svg>