<?xml version="1.0" encoding="utf-8"?>
<!-- Generator: Adobe Illustrator 14.0.0, SVG Export Plug-In . SVG Version: 6.00 Build 43363)  -->
<!DOCTYPE svg PUBLIC "-//W3C//DTD SVG 1.0//EN" "http://www.w3.org/TR/2001/REC-SVG-20010904/DTD/svg10.dtd">
<svg version="1.0" id="Layer_1" xmlns="http://www.w3.org/2000/svg" xmlns:xlink="http://www.w3.org/1999/xlink" x="0px" y="0px"
	 width="58.88px" height="100px" viewBox="0 0 58.88 100" enable-background="new 0 0 58.88 100" xml:space="preserve">
<path d="M50.642,54.731l-19.77-1.998c0-9.485-0.749-18.97-0.749-28.456c0-2.857-2.383-5.241-5.241-5.241
	c-2.859,0-3.895,2.383-3.895,5.241c0,12.443,0,27.497,0,39.94c-1.608-2.174-7.785-8.634-7.863-8.736
	c-2.034-2.751-8.965-4.386-12.165-2.512c-2.717,1.593,2.259,5.438,4.302,8.201c7.416,10.026,13.29,19.999,20.706,30.025
	c0.86,1.714,2.02,3.251,3.412,4.544c0.7,0.783,1.521,1.42,2.414,1.849c2.447,1.527,5.337,2.412,8.433,2.412
	c8.376,0,15.239-6.458,15.895-14.665c0.033-0.241,0.057-0.486,0.057-0.736l2.702-23.577C58.88,58.043,53.621,54.731,50.642,54.731z"
	/>
<path d="M17.865,47.69c0-1.888,0-3.771,0-5.649C10.599,39.41,5.391,32.442,5.391,24.277c0-10.413,8.473-18.886,18.886-18.886
	c10.413,0,18.887,8.473,18.887,18.886c0,6.921-3.744,12.979-9.311,16.269c0.078,1.978,0.157,3.956,0.23,5.933
	c8.515-3.776,14.471-12.303,14.471-22.201C48.555,10.891,37.665,0,24.277,0C10.891,0,0,10.891,0,24.277
	C0,35.445,7.582,44.87,17.865,47.69z"/>
</svg>
