<svg xmlns="http://www.w3.org/2000/svg" xmlns:xlink="http://www.w3.org/1999/xlink" version="1.1" id="Layer_1" x="0px" y="0px" width="100.0px" height="100px" viewBox="0 0 144 144" enable-background="new 0 0 144 144" xml:space="preserve">
<g>
	<path d="M63.048,58.339c0,0-2.493-2.513-3.562-3.77H56.28c0,0,1.246-3.56,3.383-2.514c0,0,4.276-1.886,5.701,1.046l1.068,0.629   h4.685l2.794,1.169c0,0,16.388-8.708,23.332-23.372c0,0,6.059-5.027,11.402-10.263h1.423c0,0,16.92-18.014,22.263-15.918   l-4.272,3.978c0,0,8.726-3.771,8.906-2.931c0,0-8.017,7.329-11.936,8.586c0,0,16.486-6.073,16.486-4.398   c0,0-14.707,8.797-17.197,8.797c0,0,17.197-4.189,17.197-3.14c0,0-6.868,5.236-12.745,4.815c0,0-2.318,2.096-3.919,2.096   c0,0,16.664-1.257,16.664,0.419c0,0,2.038,1.675-16.308,3.351c0,0,15.676,1.257,15.494,2.934c0,0-1.78,2.303-14.604,0.835   c0,0,13.001,3.771,12.467,5.238c0,0-3.56,1.674-12.287-0.838c0,0,14.07,6.075,0.892,5.234c0,0,2.847,2.514-1.428,2.097   c0,0-0.179,2.932-2.137,2.512c0,0-1.423,6.703-3.384,5.971c0,0-8.369,24.611-30.456,29.425l-0.357,1.258l7.123,7.121l-0.177,11.941   c0,0-2.494,3.77-4.275,1.885c0,0-0.714,3.352-1.957,1.885c0,0-0.892,1.371-1.961,0.373c0,0-1.602,1.727-2.138,0.363   c0,0-0.89,2.832-2.315,0.523c0,0-1.247,1.672-1.958-0.004c0,0-0.179,2.029-1.782,0.912L78.187,88.92c0,0-0.177-1.465-1.603,0.838   c0,0-13.713,18.643-40.965,19.061c0,0-1.782,3.352-2.494,1.258c0,0-3.206,3.98-3.383,2.721l-2.671,4.191c0,0,0.354-4.607,0-7.33   c0,0-2.317,10.262-4.455,11.936c0,0,0.357-13.193,1.069-14.242c0,0-5.165,14.873-6.233,14.242c0,0,2.313-17.592,3.74-19.27   c0,0-7.838,19.063-9.797,18.223c0,0,4.809-16.336,5.878-16.754c0,0-9.263,15.498-11.221,13.822c0,0,9.083-19.479,10.864-20.107   c0,0-13.726,17.387-14.96,16.338c0,0,7.836-14.453,9.795-16.129c1.96-1.676,0.892-0.627,0.892-0.627s-9.452,10.262-10.687,9.424   c0,0,5.342-8.586,6.411-9.424c0,0-5.176,5.863-6.411,4.816c0,0,3.383-7.961,19.236-18.014c0,0,6.41-3.979,7.123-3.77   c0,0,6.412-4.607,7.838-3.352c0,0,17.098-5.388,26.537-13.376L63.048,58.339z"/>
	<path fill="#000000" d="M63.761,66.508c0,0,8.37,13.822,9.261,14.033c0,0-3.206,6.492-11.221,0L36.866,83.43   c0,0-6.769,8.842-11.222,3.604c0,0,3.207-3.559,4.276-3.141c0,0,5.699-5.443,7.481-3.979c0,0,9.439-3.875,15.496-8.798   C52.897,71.116,64.472,62.948,63.761,66.508z"/>
	<path fill="#000000" d="M80.86,52.475c0,0-3.232,4.185,5.699,19.689c0,0,2.314-0.838,2.314-3.352c0,0,3.919,3.142,2.671-13.613   l10.688-19.69c0,0,7.48-1.257,7.125-8.588c0,0-0.356-1.886-2.139,1.466c0,0-2.493,2.096-3.738,2.096c0,0-4.811,3.56-5.878,6.702   C97.603,37.184,82.335,53.521,80.86,52.475z"/>
</g>
</svg>