<svg xmlns="http://www.w3.org/2000/svg" xmlns:xlink="http://www.w3.org/1999/xlink" version="1.1" id="Layer_1" x="0px" y="0px" width="68.318px" height="100px" viewBox="0 0 68.318 100" enable-background="new 0 0 68.318 100" xml:space="preserve">
<path d="M68.318,3.295C68.318,1.478,66.839,0,65.023,0H3.295C1.479,0,0,1.478,0,3.295v17.146v0.001v59.115v17.147  C0,98.521,1.479,100,3.295,100h61.728c1.817,0,3.295-1.479,3.295-3.295V79.567V20.441c0-0.407-0.074-0.797-0.21-1.157  c0.136,0.36,0.21,0.75,0.21,1.158V3.295z M2.733,3.295c0-0.31,0.252-0.562,0.562-0.562h61.728c0.31,0,0.562,0.252,0.562,0.562  v13.902c-0.002,0-0.004,0-0.006,0c-0.001,0-0.003-0.001-0.005-0.001c-0.086-0.015-0.173-0.027-0.26-0.036  c-0.097-0.008-0.193-0.015-0.291-0.015H3.295c-0.098,0-0.194,0.006-0.29,0.015c-0.092,0.009-0.183,0.022-0.272,0.038V3.295z   M65.584,96.705c0,0.31-0.252,0.562-0.562,0.562H3.295c-0.31,0-0.562-0.252-0.562-0.562V20.441c0-0.31,0.252-0.562,0.562-0.562  h61.728c0.31,0,0.562,0.252,0.562,0.562V96.705z"/>
<circle cx="60.471" cy="11.79" r="2.705"/>
<circle cx="53.372" cy="11.79" r="2.705"/>
<circle cx="45.935" cy="11.452" r="2.705"/>
<g>
	<path d="M34.159,83.942c-13.988,0-25.369-11.381-25.369-25.37c0-13.988,11.38-25.369,25.369-25.369   c13.989,0,25.369,11.381,25.369,25.369C59.528,72.562,48.148,83.942,34.159,83.942z M34.159,35.937   c-12.481,0-22.636,10.154-22.636,22.635c0,12.482,10.155,22.637,22.636,22.637c12.481,0,22.637-10.154,22.637-22.637   C56.795,46.091,46.64,35.937,34.159,35.937z"/>
</g>
<path d="M34.16,40.274c-7.702,0-14.303,4.786-16.999,11.537h-2.09c-1.065,0-1.929,0.863-1.929,1.929v9.665  c0,1.065,0.864,1.929,1.929,1.929h2.09c2.695,6.752,9.297,11.537,16.999,11.537c10.09,0,18.297-8.208,18.297-18.299  C52.457,48.483,44.25,40.274,34.16,40.274z M34.16,74.138c-6.22,0-11.597-3.668-14.087-8.953c0.695-0.292,1.184-0.979,1.184-1.779  V53.74c0-0.801-0.489-1.487-1.184-1.779c2.491-5.285,7.868-8.953,14.087-8.953c8.582,0,15.564,6.982,15.564,15.564  C49.724,67.155,42.742,74.138,34.16,74.138z"/>
<path d="M20.412,5.366c-2.334,0-4.227,1.892-4.227,4.226c0,2.333,1.892,4.226,4.227,4.226c2.333,0,4.225-1.892,4.225-4.226  C24.637,7.258,22.745,5.366,20.412,5.366z M20.412,11.762c-1.199,0-2.17-0.971-2.17-2.169c0-1.199,0.971-2.17,2.17-2.17  c1.198,0,2.169,0.971,2.169,2.17C22.581,10.791,21.609,11.762,20.412,11.762z"/>
<path d="M9.932,5.366c-2.334,0-4.226,1.892-4.226,4.226c0,2.333,1.892,4.226,4.226,4.226c2.333,0,4.226-1.892,4.226-4.226  C14.157,7.258,12.265,5.366,9.932,5.366z M9.932,11.762c-1.198,0-2.17-0.971-2.17-2.169c0-1.199,0.972-2.17,2.17-2.17  s2.169,0.971,2.169,2.17C12.101,10.791,11.13,11.762,9.932,11.762z"/>
</svg>