<svg xmlns="http://www.w3.org/2000/svg" xmlns:xlink="http://www.w3.org/1999/xlink" version="1.1" id="Layer_1" x="0px" y="0px" width="100px" height="100px" viewBox="0 0 100 100" enable-background="new 0 0 100 100" xml:space="preserve">
<g>
	<path d="M78.07,33.748c-5.516,0-10.242,2.353-13.723,6.117V66.14c3.48,3.764,8.207,6.118,13.723,6.118   c10.558,0,19.116-8.62,19.116-19.255S88.628,33.748,78.07,33.748z M90.874,57.688l-7.257,4.469   c-0.181,0.012-0.361,0.02-0.545,0.021V43.633c0.151,0.001,0.302,0.006,0.451,0.015l7.351,4.525V57.688z"/>
	<path d="M77.914,31.579c-8.148,0-15.223,4.587-18.787,11.319c-0.575,0.601-1.529,1.483-2.22,1.557H4.751c0,0-4.253,1.584-4.17,4.67   s7.006,7.924,7.339,7.924c0.334,0,1.334-0.584,1.334-0.584h0.667c0,0,3.252,2.002,3.92,2.002s3.002-1.836,3.002-1.836h1.669   c0,0,3.002,2.586,4.253,2.671c1.251,0.082,3.753-2.753,3.753-2.753h30.477c0.064,0.364,0.139,0.726,0.222,1.084h-15.77   c0,0,2.893,2.279,4.449,2.279c3.058,0,4.115-0.166,4.227,1.001s0.279,3.059,1.946,3.113c1.668,0.056,4.226-2.168,5.17-2.168   c0.678,0,1.414,0.43,1.775,0.672c3.525,6.849,10.664,11.534,18.898,11.534c11.731,0,21.242-9.51,21.242-21.243   C99.156,41.089,89.646,31.579,77.914,31.579z M78.051,73.035c-5.848,0-11.105-2.538-14.749-6.579v-0.038V39.495   c3.644-4.042,8.901-6.581,14.749-6.581c11.001,0,19.916,8.982,19.916,20.061C97.967,64.054,89.052,73.035,78.051,73.035z"/>
</g>
</svg>